<?xml version="1.0" ?><svg data-name="Layer 1" id="Layer_1" viewBox="0 0 272 272" xmlns="http://www.w3.org/2000/svg"><defs><style>.cls-1{fill:#ffd54f;}.cls-2{fill:#fff176;}.cls-3{fill:#4fc2f8;}.cls-4{fill:#8bc24a;}.cls-5{fill:#f06292;}.cls-6{fill:none;}</style></defs><title/><rect class="cls-1" height="256" rx="6" ry="6" width="12" x="130" y="8"/><path class="cls-2" d="M183.39,111.66c-.74-5.06-1.57-10-2.48-14.73-8.31-43-23.57-72.93-41.31-76.55A17.6,17.6,0,0,0,136,20H136C116.64,20,99.8,51.12,91,97.2c-.94,4.91-1.79,10-2.54,15.23a16,16,0,0,0-.36,2.54l-.05.36h0c0,.22,0,.44,0,.66a16,16,0,0,0,32,0c0-.15,0-.29,0-.44h0c0,.15,0,.29,0,.44a16,16,0,0,0,32,0c0-.07,0-.15,0-.22h0c0,.07,0,.15,0,.22a16,16,0,1,0,31.39-4.34Z"/><path class="cls-3" d="M30.9,97.2q-2.09,4.62-3.89,9.46-1.61,4.25-3,8.63l0,0h0c0,.22,0,.44,0,.66a16,16,0,0,0,32,0c0-.19,0-.38,0-.57h0c0,.19,0,.38,0,.57a16,16,0,0,0,32,0c0-.16,0-.31,0-.47h0a1.27,1.27,0,0,0,0-.19h0c0-.12,0-.24,0-.37a16.53,16.53,0,0,1,.36-2.54C89.16,107.2,90,102.11,91,97.2c8.83-46,25.64-77.14,44.94-77.2C90.82,20,51.54,51.12,30.9,97.2Z"/><path class="cls-4" d="M120,119.56h0s0,0,0,.06h0S120,119.58,120,119.56Z"/><path class="cls-5" d="M244.57,106.09q-1.77-4.68-3.79-9.16c-19.38-43-55-72.93-96.4-76.55-2.74-.24-5.52-.38-8.32-.38a17.42,17.42,0,0,1,3.53.38c17.75,3.62,33,33.54,41.32,76.55.91,4.75,1.74,9.67,2.48,14.73a15.82,15.82,0,0,1,.6,4.15h0c0,.06,0,.13,0,.19a16,16,0,0,0,32,0s0-.06,0-.09h0V116a16,16,0,0,0,32,0Q246.43,111,244.57,106.09Z"/><path class="cls-6" d="M184,120c0-53.06-21.47-96-48-96"/></svg>